Hammer of the Gods HDRip DELUXE.avi 

Portuguese Subtitles


General

Format                                   : AVI
Format/Info                              : Audio Video Interleave
File size                                : 382 MiB
Duration                                 : 1h 38mn
Overall bit rate                         : 540 Kbps
Writing application                      : Lavf52.57.1

Video

ID                                       : 0
Format                                   : xvid
Codec ID                                 : xvid
Duration                                 : 1h 38mn
Bit rate                                 : 400 Kbps
Width                                    : 640 pixels
Height                                   : 400 pixels
Display aspect ratio                     : 1.600
Frame rate                               : 23.976 fps
Bits/(Pixel*Frame)                       : 0.065
Stream size                              : 283 MiB (74%)

Audio

ID                                       : 1
Format                                   : MPEG Audio
Format version                           : Version 1
Format profile                           : Layer 3
Mode                                     : Joint stereo
Mode extension                           : MS Stereo
Codec ID                                 : 55
Codec ID/Hint                            : MP3
Duration                                 : 1h 38mn
Bit rate mode                            : Constant
Bit rate                                 : 128 Kbps
Channel(s)                               : 2 channels
Sampling rate                            : 44.1 KHz
Compression mode                         : Lossy
Stream size                              : 90.6 MiB (24%)
Alignment                                : Aligned on interleaves
Interleave, duration                     : 26 ms (0.63 video frame)
Interleave, preload duration             : 26 ms
Writing library                          : LAME3.98.2


Plot

In Viking Britain in 871 AD, a young Viking warrior named Steinar (Charlie Bewley) is sent by his father the king on a quest to find his estranged brother, who was banished from the kingdom many years before. Steinar's journey across terrifyingly hostile territory gradually sees him emerge as the man his father wants him to be ΓÇô the ruthless and unforgiving successor to his throne.



* enjoy ...